<?xml version="1.0" encoding="UTF-8"?>
<svg id="Layer_1" xmlns="http://www.w3.org/2000/svg" viewBox="0 0 154 82">
  <defs>
    <style>
      .cls-1 {
        fill: #fff;
        stroke: #231f20;
        stroke-miterlimit: 10;
      }
    </style>
  </defs>
  <path class="cls-1" d="M20.63,12.65c-4.38,2.83-5.96,10.34-2.02,17.28-7.41-3.39-15.75.05-17.67,5.46-1.57,4.43,1.17,10.15,7.07,12.73-4.84,6.26-3.3,14.59,2.52,18.64,6.55,4.55,17.35,2.9,22.22-4.55,4.34,8.06,14.11,11.09,20.7,8.18,4.51-1.99,7.33-6.66,7.57-11.82,8.22,11.32,21.48,13.46,26.76,9.55,4.3-3.19,4.85-11.53.5-19.55,10-1.77,15.03-10.39,12.62-16.37-1.79-4.46-7.81-7.66-14.64-7.27,5.02-10.18,2.3-19.28-2.02-20.91-4.2-1.59-12.85,2.79-17.67,12.28C61.98,4.43,51.88-.94,46.89.83c-4.58,1.63-7.41,10.16-4.54,20-5.09-9.38-16.41-11.61-21.71-8.18Z"/>
  <path class="cls-1" d="M109.28,54.06c-1.22.85-1.65,3.12-.56,5.22-2.06-1.02-4.37.01-4.9,1.65-.44,1.34.33,3.07,1.96,3.84-1.34,1.89-.92,4.4.7,5.63,1.82,1.37,4.81.88,6.16-1.37,1.2,2.43,3.92,3.35,5.74,2.47,1.25-.6,2.03-2.01,2.1-3.57,2.28,3.42,5.96,4.06,7.43,2.88,1.19-.96,1.34-3.48.14-5.9,2.77-.53,4.17-3.14,3.5-4.94-.5-1.35-2.17-2.31-4.06-2.2,1.39-3.07.64-5.82-.56-6.31-1.17-.48-3.57.84-4.9,3.71-1.28-3.58-4.08-5.2-5.46-4.67-1.27.49-2.06,3.07-1.26,6.04-1.41-2.83-4.55-3.5-6.02-2.47Z"/>
  <path class="cls-1" d="M149.2,69.48c-1.47-1.11-4.21-.7-5.87,1.36-1.07-.75-2.36-1.01-3.12-.53-1.01.65-1.37,2.81.13,4.73-1.49,1.61-1.18,3.7-.04,4.35.85.48,2.26.22,3.35-.72,1.47,2.58,4.55,3.45,6.84,2.36,1.79-.85,3.48-3.08,2.88-5.15-.6-2.07-3.07-2.57-3.22-2.6.44-1.51.08-3.02-.95-3.81Z"/>
</svg>