<?xml version="1.0" encoding="UTF-8"?>
<svg id="Layer_1" xmlns="http://www.w3.org/2000/svg" viewBox="0 0 107.04 76.25">
  <defs>
    <style>
      .cls-1 {
        fill: #fff;
        stroke: #231f20;
        stroke-miterlimit: 10;
      }
    </style>
  </defs>
  <path class="cls-1" d="M26.74,1.73l-1.99,16.23-20.53,2.32,15.56,15.56L1.24,50.07l18.21,2.65.99,16.56,14.57-10.26,11.92,11.26,9.27-12.91,16.23,4.64-5.63-13.91,13.25-1.32c-3.2-3.75-6.4-7.51-9.6-11.26,3.53-4.75,7.06-9.49,10.6-14.24-6.4-.33-12.8-.66-19.21-.99-.44-6.4-.88-12.8-1.32-19.21l-15.23,13.91c-6.18-4.42-12.36-8.83-18.54-13.25Z"/>
  <polygon class="cls-1" points="83.28 64.48 76.46 60.03 80.01 66.77 73.98 67.07 80.33 69.8 80.42 74.81 83.95 70.22 90.53 70.98 85.39 66.39 89.69 60.88 83.28 64.48"/>
  <path class="cls-1" d="M98.31,67.25l1.28-4.42,1.69,4.01,4.34.96-3.61,1.93.65,3.93c-1.02-1.01-2.05-2.02-3.07-3.02-.98.94-1.95,1.88-2.93,2.81.2-1.49.39-2.97.59-4.46-1.13-.63-2.27-1.25-3.4-1.88,1.49.04,2.98.08,4.47.12Z"/>
</svg>